<?xml version="1.0" standalone="no"?><!DOCTYPE svg PUBLIC "-//W3C//DTD SVG 1.1//EN" "http://www.w3.org/Graphics/SVG/1.1/DTD/svg11.dtd"><svg class="icon" width="200px" height="200.00px" viewBox="0 0 1024 1024" version="1.1" xmlns="http://www.w3.org/2000/svg"><path fill="#bfbfbf" d="M696.624798 733.101733v121.530988c0 19.367348-15.769043 35.13639-35.136391 35.136391H169.437834c-19.367348 0-35.13639-15.769043-35.136391-35.136391V362.793813c0-19.367348 15.769043-35.13639 35.136391-35.136391h133.454783V257.419919H169.437834c-58.13732 0-105.444448 47.27185-105.444449 105.373894v491.803631c0 58.102043 47.307128 105.373893 105.444449 105.373893h492.050573c58.13732 0 105.444448-47.27185 105.444449-105.373893V733.066455h-70.308058z"  /><path fill="#bfbfbf" d="M661.982292 362.26465h-281.161677l105.409171 105.373893-317.285837 317.038895 70.625555 70.484446 317.180005-317.038895 105.126951 105.056396z"  /><path fill="#bfbfbf" d="M854.562166 766.580081H362.511593c-58.13732 0-105.444448-47.27185-105.444449-105.373894V169.402556c0-58.102043 47.307128-105.373893 105.444449-105.373893h492.050573c58.13732 0 105.444448 47.27185 105.444449 105.373893v491.803631c0 58.102043-47.307128 105.373893-105.444449 105.373894zM362.511593 134.266166c-19.367348 0-35.13639 15.769043-35.136391 35.13639v491.803631c0 19.367348 15.769043 35.13639 35.136391 35.136391h492.050573c19.367348 0 35.13639-15.769043 35.136391-35.136391V169.402556c0-19.367348-15.769043-35.13639-35.136391-35.13639H362.511593z"  /></svg>