<?xml version="1.0" standalone="no"?><!DOCTYPE svg PUBLIC "-//W3C//DTD SVG 1.1//EN" "http://www.w3.org/Graphics/SVG/1.1/DTD/svg11.dtd"><svg class="icon" width="200px" height="200.00px" viewBox="0 0 1024 1024" version="1.1" xmlns="http://www.w3.org/2000/svg"><path fill="#bfbfbf" d="M512 788.48c-22.528 0-40.96-18.432-40.96-40.96v-450.56c0-22.528 18.432-40.96 40.96-40.96s40.96 18.432 40.96 40.96v452.608c0 20.48-18.432 38.912-40.96 38.912zM962.56 788.48c-22.528 0-40.96-18.432-40.96-40.96V61.44c0-22.528 18.432-40.96 40.96-40.96s40.96 18.432 40.96 40.96v688.128c-2.048 20.48-18.432 38.912-40.96 38.912zM983.04 1019.904H40.96c-22.528 0-40.96-18.432-40.96-40.96s18.432-40.96 40.96-40.96h942.08c22.528 0 40.96 18.432 40.96 40.96 0 24.576-18.432 40.96-40.96 40.96zM63.488 788.48c-22.528 0-40.96-18.432-40.96-40.96V468.992c0-22.528 18.432-40.96 40.96-40.96s40.96 18.432 40.96 40.96v280.576c-2.048 20.48-20.48 38.912-40.96 38.912z"  /></svg>