<?xml version="1.0" standalone="no"?><!DOCTYPE svg PUBLIC "-//W3C//DTD SVG 1.1//EN" "http://www.w3.org/Graphics/SVG/1.1/DTD/svg11.dtd"><svg class="icon" width="200px" height="200.00px" viewBox="0 0 1024 1024" version="1.1" xmlns="http://www.w3.org/2000/svg"><path fill="#bfbfbf" d="M262.5 665.5h-204c-12.5 0-22.7-10.1-22.7-22.7 0-12.5 10.1-22.7 22.7-22.7h204c100 0 181.3-81.3 181.3-181.3 0-12.5 10.1-22.7 22.7-22.7s22.7 10.1 22.7 22.7c-0.1 125.1-101.7 226.7-226.7 226.7zM392.2 304.1c-5.1 0-10.2-1.7-14.4-5.2-32.3-26.7-73.3-41.4-115.3-41.4h-204c-12.5 0-22.7-10.1-22.7-22.7s10.1-22.7 22.7-22.7h204c52.5 0 103.7 18.4 144.2 51.8 9.7 8 11 22.3 3.1 31.9-4.6 5.5-11.1 8.3-17.6 8.3zM874.5 665.5h-204c-49.4 0-96.4-15.6-135.9-45.2-10-7.5-12-21.7-4.5-31.7s21.7-12 31.7-4.5c31.5 23.7 69.1 36.2 108.7 36.2h204c12.5 0 22.7 10.1 22.7 22.7-0.1 12.4-10.2 22.5-22.7 22.5z"  /><path fill="#bfbfbf" d="M466.5 461.5c-12.5 0-22.7-10.1-22.7-22.7 0-125 101.7-226.7 226.7-226.7h204c12.5 0 22.7 10.1 22.7 22.7s-10.1 22.7-22.7 22.7h-204c-100 0-181.3 81.3-181.3 181.3-0.1 12.6-10.2 22.7-22.7 22.7z"  /><path fill="#bfbfbf" d="M860 253.2l-100-99.9c-7.8-7.8-7.8-20.5 0-28.3l3.8-3.8c7.8-7.8 20.5-7.8 28.3 0l99.9 99.9c7.8 7.8 7.8 20.5 0 28.3l-3.8 3.8c-7.7 7.8-20.4 7.8-28.2 0z"  /><path fill="#bfbfbf" d="M792.1 348.5l99.9-99.9c7.8-7.8 7.8-20.5 0-28.3l-3.8-3.8c-7.8-7.8-20.5-7.8-28.3 0l-99.9 100c-7.8 7.8-7.8 20.5 0 28.3l3.8 3.8c7.8 7.7 20.5 7.7 28.3-0.1z"  /><path fill="#bfbfbf" d="M858.9 661.2L759 561.3c-7.8-7.8-7.8-20.5 0-28.3l3.8-3.8c7.8-7.8 20.5-7.8 28.3 0l99.9 99.9c7.8 7.8 7.8 20.5 0 28.3l-3.8 3.8c-7.9 7.8-20.5 7.8-28.3 0z"  /><path fill="#bfbfbf" d="M791 756.5l99.9-99.9c7.8-7.8 7.8-20.5 0-28.3l-3.8-3.8c-7.8-7.8-20.5-7.8-28.3 0l-99.9 99.9c-7.8 7.8-7.8 20.5 0 28.3l3.8 3.8c7.8 7.8 20.5 7.8 28.3 0z"  /></svg>