<?xml version="1.0" standalone="no"?><!DOCTYPE svg PUBLIC "-//W3C//DTD SVG 1.1//EN" "http://www.w3.org/Graphics/SVG/1.1/DTD/svg11.dtd"><svg class="icon" width="200px" height="190.16px" viewBox="0 0 1077 1024" version="1.1" xmlns="http://www.w3.org/2000/svg"><path fill="#bfbfbf" d="M618.38961 39.896104v219.694545c0 19.283117 2.526753 37.768312 13.83065 53.992728 15.027532 21.410909 38.167273 31.916883 63.833766 32.182857 38.433247 0.265974 76.733506 0 115.166753 0h113.038961c17.288312 0 26.331429-21.80987 14.096624-34.044676L688.074805 61.44l-35.640519-35.640519c-18.219221-18.219221-46.412468 9.974026-28.193247 28.193246l250.281558 250.281559 35.64052 35.640519c4.654545-11.303896 9.442078-22.740779 14.096623-34.044675H709.884675c-10.372987 0-22.075844 1.32987-31.650909-3.191688-16.357403-7.846234-20.081039-24.46961-20.081039-40.694026v-115.831689-106.123636C658.285714 14.22961 618.38961 14.22961 618.38961 39.896104z"  /><path fill="#bfbfbf" d="M904.311688 325.818182v567.322597c0 27.794286 6.117403 68.754286-33.512727 70.882078-23.937662 1.32987-48.141299 0-72.078961 0H449.895065c-80.59013 0-161.978182 3.191688-242.568312 0-34.975584-1.196883-34.443636-31.251948-34.443636-56.652467v-109.182338-358.798961-303.343377c0-18.618182-5.053506-49.737143 8.245195-64.897662 10.904935-12.367792 25.533506-11.303896 40.295065-11.303896h417.047272c-4.654545-1.994805-9.442078-3.856623-14.096623-5.851429l250.148571 250.148572 35.773507 35.773506c18.219221 18.219221 46.412468-9.974026 28.193247-28.193247-80.723117-80.59013-161.18026-161.18026-241.77039-241.637402-13.697662-13.697662-27.129351-27.927273-41.225974-41.225974-9.176104-8.777143-18.086234-8.777143-29.789091-8.777143H247.08987c-13.431688 0-26.996364-0.531948-40.428052 0-41.624935 1.32987-72.344935 32.448831-73.674805 73.807792-2.925714 89.899221 0 180.33039 0 270.229611v552.827013c0 13.298701-0.132987 26.065455 4.521558 38.965194 11.56987 31.650909 41.092987 47.875325 73.408832 48.141299 111.443117 0.930909 222.886234 0 334.32935 0 107.719481 0 215.704935 1.462857 323.424416 0 39.364156-0.531948 72.211948-28.459221 75.403636-68.488312 0.797922-9.841039 0.132987-19.815065 0.132987-29.656104V740.737662 351.085714v-25.134545c0-25.799481-39.896104-25.799481-39.896104-0.132987z"  /><path fill="#bfbfbf" d="M319.168831 502.025974h438.857143c25.666494 0 25.666494-39.896104 0-39.896104H319.168831c-25.666494 0-25.666494 39.896104 0 39.896104zM319.168831 774.649351h438.857143c25.666494 0 25.666494-39.896104 0-39.896104H319.168831c-25.666494 0-25.666494 39.896104 0 39.896104z"  /></svg>