<?xml version="1.0" encoding="UTF-8"?>
<svg width="16px" height="16px" viewBox="0 0 16 16" version="1.1" xmlns="http://www.w3.org/2000/svg" xmlns:xlink="http://www.w3.org/1999/xlink">
    <title>介质交互请求管理</title>
    <g id="页面-1" stroke="none" stroke-width="1" fill="none" fill-rule="evenodd">
        <g id="介质交互请求管理" fill-rule="nonzero">
            <rect id="矩形" fill="#000000" opacity="0" x="0" y="0" width="16" height="16"></rect>
            <path d="M8.340625,14.88125 C8.2421875,14.78125 8.1109375,14.7265625 7.9703125,14.725 C4.3015625,14.703125 1.3359375,11.7 1.3578125,8.0328125 C1.371875,5.646875 2.7140625,3.409375 4.7890625,2.2515625 C4.8671875,2.2078125 4.94375,2.1625 5.0234375,2.1234375 L5.1546875,2.4671875 L5.234375,2.68125 L5.2359375,2.678125 L5.2375,2.6828125 L6.0734375,1.4015625 L6.359375,0.9703125 L6.3578125,0.9703125 L6.3609375,0.965625 L5.1359375,0.66875 L4.4265625,0.49375 L4.428125,0.496875 L4.4234375,0.4953125 L4.6640625,1.134375 C2.034375,2.40625 0.325,5.1109375 0.3078125,8.0265625 C0.2953125,10.0796875 1.0859375,12.01875 2.534375,13.484375 C3.9828125,14.95 5.9109375,15.7625 7.965625,15.775 L7.96875,15.775 C8.25625,15.775 8.4921875,15.540625 8.49375,15.253125 C8.49375,15.1140625 8.4390625,14.98125 8.340625,14.88125 Z M15.7140625,8.0546875 C15.7265625,6 14.9359375,4.0625 13.4875,2.596875 C12.040625,1.13125 10.1109375,0.31875 8.0546875,0.30625 C7.7671875,0.30625 7.53125,0.540625 7.52967973,0.828125 C7.528125,1.1171875 7.7625,1.3546875 8.0515625,1.35625 C9.825,1.3671875 11.4921875,2.0703125 12.7421875,3.3359375 C13.9921875,4.6015625 14.675,6.275 14.665625,8.05 C14.6515625,10.44375 13.3,12.6875 11.2140625,13.8421875 C11.1421875,13.88125 11.071875,13.9234375 11,13.959375 L10.8703125,13.6203125 L10.7890625,13.403125 L10.7875,13.40625 L10.7859375,13.4 L9.9453125,14.6875 L9.665625,15.1125 L9.6671875,15.1125 L9.6640625,15.1171875 L11.5984375,15.5921875 C11.6,15.5921875 11.6015625,15.5921875 11.6015625,15.590625 C11.603125,15.5890625 11.603125,15.5875 11.603125,15.5859375 L11.359375,14.9453125 C13.9875,13.675 15.696875,10.9703125 15.7140625,8.0546875 Z M6.95,5.0546875 C7.2390625,5.0546875 7.475,5.290625 7.475,5.5796875 L7.475,10.5015625 C7.475,10.790625 7.2390625,11.0265625 6.95,11.0265625 C6.6609375,11.0265625 6.425,10.790625 6.425,10.5015625 L6.425,5.5796875 C6.425,5.290625 6.6625,5.0546875 6.95,5.0546875 Z M9.071875,5.8359375 C9.3609375,5.8359375 9.596875,6.071875 9.596875,6.3609375 L9.596875,9.71875 C9.596875,10.0078125 9.3609375,10.24375 9.071875,10.24375 C8.7828125,10.24375 8.546875,10.0078125 8.546875,9.71875 L8.546875,6.3609375 C8.546875,6.0734375 8.7828125,5.8359375 9.071875,5.8359375 Z M11.1921875,7.01875 C11.48125,7.01875 11.7171875,7.2546875 11.7171875,7.54375 L11.7171875,8.5359375 C11.7171875,8.825 11.48125,9.0609375 11.1921875,9.0609375 C10.903125,9.0609375 10.6671875,8.825 10.6671875,8.5359375 L10.6671875,7.54375 C10.6671875,7.25625 10.903125,7.01875 11.1921875,7.01875 L11.1921875,7.01875 Z M4.8296875,7.01875 C5.11875,7.01875 5.3546875,7.2546875 5.3546875,7.54375 L5.3546875,8.5359375 C5.3546875,8.825 5.11875,9.0609375 4.8296875,9.0609375 C4.540625,9.0609375 4.3046875,8.825 4.3046875,8.5359375 L4.3046875,7.54375 C4.3046875,7.25625 4.540625,7.01875 4.8296875,7.01875 L4.8296875,7.01875 Z" id="形状" fill="#7F848B"></path>
        </g>
    </g>
</svg>