<?xml version="1.0" encoding="UTF-8"?>
<svg width="16px" height="16px" viewBox="0 0 16 16" version="1.1" xmlns="http://www.w3.org/2000/svg" xmlns:xlink="http://www.w3.org/1999/xlink">
    <title>分中心管理</title>
    <g id="页面-1" stroke="none" stroke-width="1" fill="none" fill-rule="evenodd">
        <g id="分中心管理" fill-rule="nonzero">
            <rect id="矩形" fill="#000000" opacity="0" x="0" y="0" width="16" height="16"></rect>
            <path d="M7.975,3.8 C8.1,4.225 8.5,4.5 8.925,4.5 L12.975,4.5 C12.975,3.95 12.525,3.5 11.975,3.5 L7.875,3.5 L7.975,3.8 Z M7.575,2.5 L11.975,2.5 C13.075,2.5 13.975,3.4 13.975,4.5 L13.975,4.9 C14.45,5.275 14.775,5.85 14.775,6.5 L14.775,12.5 C14.775,13.6 13.875,14.5 12.775,14.5 L3.25,14.5 C2.15,14.5 1.25,13.6 1.25,12.5 L1.25,3.5 C1.25,2.4 2.15,1.5 3.25,1.5 L5.825,1.5 C6.55,1.5 7.225,1.9 7.575,2.5 Z M5.825,2.5 L3.25,2.5 C2.7,2.5 2.25,2.95 2.25,3.5 L2.25,12.5 C2.25,13.05 2.7,13.5 3.25,13.5 L12.75,13.5 C13.3,13.5 13.75,13.05 13.75,12.5 L13.75,6.5 C13.75,5.95 13.3,5.5 12.75,5.5 L8.975,5.5 C8.1,5.5 7.325,4.925 7.075,4.1 L6.775,3.2 C6.65,2.775 6.275,2.5 5.825,2.5 Z M4.25,11 L8.25,11 C8.525,11 8.75,11.225 8.75,11.5 C8.75,11.775 8.525,12 8.25,12 L4.25,12 C3.975,12 3.75,11.775 3.75,11.5 C3.75,11.225 3.975,11 4.25,11 Z" id="形状" fill="#7F848B"></path>
        </g>
    </g>
</svg>