<?xml version="1.0" encoding="UTF-8"?>
<svg width="16px" height="16px" viewBox="0 0 16 16" version="1.1" xmlns="http://www.w3.org/2000/svg" xmlns:xlink="http://www.w3.org/1999/xlink">
    <title>分发交互请求管理</title>
    <g id="页面-1" stroke="none" stroke-width="1" fill="none" fill-rule="evenodd">
        <g id="分发交互请求管理" fill-rule="nonzero">
            <rect id="矩形" fill="#000000" opacity="0" x="0" y="0" width="16" height="16"></rect>
            <path d="M14.8195,8.367 C14.4155,6.4985 13.085,4.6445 11.9715,4.9665 C11.573,5.0815 11.267,5.292 11.0695,5.5825 C10.7105,5.416 10.343,5.4 9.9835,5.5585 C9.72004804,5.67174529 9.49966736,5.86619883 9.3545,6.1135 C8.9405,5.904 8.4645,5.9085 7.9655,6.1425 C7.85936096,6.19151611 7.75864532,6.25150979 7.665,6.3215 C6.449,4.603 5.4555,3.8275 4.56,4.0305 C3.292,4.3175 3.292,5.4235 4.254,6.872 L6.101,9.728 C5.0875,9.5375 4.3545,9.701 3.92,10.2815 C3.2095,11.2315 3.9615,12.109 5.7075,12.8945 L9.082,14.3955 C9.33314194,14.5022981 9.62352877,14.3879886 9.73448066,14.138654 C9.84543255,13.8893193 9.73595873,13.5970751 9.4885,13.482 L6.116,11.982 C5.4355,11.676 4.986,11.389 4.779,11.147 C4.659,11.007 4.6555,10.968 4.721,10.8805 C4.968,10.5505 5.7355,10.5505 7.0735,11.0495 C7.5245,11.218 7.9295,10.714 7.668,10.3095 L5.0905,6.324 C4.45,5.3595 4.45,5.081 4.781,5.006 C5.2195,4.907 6.142,5.778 7.3675,7.671 C7.4595,7.888 7.603,8.114 7.7955,8.3425 C8.1935,8.8155 8.927,8.287 8.6045,7.7595 C8.48655097,7.5663913 8.36654414,7.37454704 8.2445,7.184 C8.253,7.1255 8.305,7.088 8.39,7.048 C8.741,6.8835 8.96,6.946 9.2055,7.293 C9.4785,7.678 10.084,7.5055 10.1125,7.034 C10.1325,6.703 10.224,6.545 10.3865,6.4735 C10.5265,6.412 10.7005,6.465 10.972,6.7235 C11.1109771,6.85596898 11.3135328,6.89715848 11.4932082,6.82948714 C11.6728836,6.7618158 11.7979407,6.59723713 11.815,6.406 C11.838,6.1475 11.956,6.0115 12.2495,5.9265 C12.5575,5.8375 13.5485,7.2185 13.8425,8.578 C14.054,9.556 14.054,10.7185 13.8375,12.0645 C13.7937314,12.3371906 13.9793094,12.5937314 14.252,12.6375 C14.5246906,12.6812686 14.7812314,12.4956906 14.825,12.223 C15.0595,10.762 15.0595,9.4765 14.8195,8.367 Z" id="路径" fill="#7F848B"></path>
            <path d="M4.7,14 L2.5665,14 C2.2555,14 2,13.7405 2,13.4165 L2,2.5835 C2,2.2595 2.2555,2 2.5665,2 L8.433,2 C8.7445,2 9,2.2595 9,2.5835 C9,2.85964237 9.22385763,3.0835 9.5,3.0835 C9.77614237,3.0835 10,2.85964237 10,2.5835 C10,1.7105 9.3005,1 8.4335,1 L2.5665,1 C1.6995,1 1,1.7105 1,2.5835 L1,13.417 C1,14.2895 1.6995,15 2.5665,15 L4.7,15 C4.97614237,15 5.2,14.7761424 5.2,14.5 C5.2,14.2238576 4.97614237,14 4.7,14 Z" id="路径" fill="#7F848B"></path>
        </g>
    </g>
</svg>