<?xml version="1.0" encoding="UTF-8"?>
<svg width="16px" height="16px" viewBox="0 0 16 16" version="1.1" xmlns="http://www.w3.org/2000/svg" xmlns:xlink="http://www.w3.org/1999/xlink">
    <title>分发目标</title>
    <g id="页面-1" stroke="none" stroke-width="1" fill="none" fill-rule="evenodd">
        <g id="分发目标" fill-rule="nonzero">
            <rect id="矩形" fill="#000000" opacity="0" x="0" y="0" width="16" height="16"></rect>
            <path d="M14.5257033,1 L3.73519372,1 C3.47302268,1 3.26088197,1.21235063 3.26088197,1.47478111 L3.26088197,4.96142197 L0.474311749,4.96142197 C0.212140705,4.96142197 0,5.1737726 0,5.43620308 L0,15.5252189 C0,15.7876494 0.212140705,16 0.474311749,16 L10.5533537,16 C10.8155247,16 11.0276654,15.7876494 11.0276654,15.5252189 L11.0276654,12.7507497 L14.5256883,12.7507497 C14.7878593,12.7507497 15,12.5383991 15,12.2759686 L15,1.47478111 C15,1.21235063 14.7878593,1 14.5257033,1 Z M14,11.7757574 L6.80468194,11.7757574 C6.54456747,11.7757574 6.33409087,11.9864727 6.33409087,12.2468822 C6.33409087,12.5072917 6.54456747,12.718007 6.80468194,12.718007 L10.058811,12.718007 L10.058811,15 L1,15 L1,5.93091484 L3.29412028,5.93091484 L3.29412028,9.15054616 C3.29412028,9.41095565 3.50459688,9.62167096 3.76471135,9.62167096 C4.02482583,9.62167096 4.23530243,9.41095565 4.23530243,9.15054616 L4.23530241,2 L14,2 L14,11.7757574 L14,11.7757574 Z M3,12.2844847 L3.71743071,13 L10.9853746,5.7514605 L10.9853746,10.5616207 L12,10.5616207 L12,4 L5.4208138,4 L5.4208138,5.01191653 L10.2920369,5.01191653 L3,12.2844847 Z" id="形状" fill="#7F848B"></path>
        </g>
    </g>
</svg>