<?xml version="1.0" encoding="UTF-8"?>
<svg width="16px" height="16px" viewBox="0 0 16 16" version="1.1" xmlns="http://www.w3.org/2000/svg" xmlns:xlink="http://www.w3.org/1999/xlink">
    <title>接入方管理</title>
    <g id="页面-1" stroke="none" stroke-width="1" fill="none" fill-rule="evenodd">
        <g id="接入方管理" fill-rule="nonzero">
            <rect id="矩形" fill="#CECDCC" opacity="0" x="0" y="0" width="16" height="16"></rect>
            <path d="M7.08392031,2.19123506 C7.08392031,0.98104936 6.10287097,0 4.89268527,0 L2.19149005,0 C0.981304339,0 0.000254984375,0.981049354 0.000254984375,2.19123506 L0.000254984375,4.88446216 C0.000254984375,6.09464786 0.981304339,7.07569722 2.19149005,7.07569722 L4.89268527,7.07569722 C6.10287097,7.07569722 7.08392031,6.09464786 7.08392031,4.88446216 L7.08392031,2.19123506 Z M5.88870119,4.88446216 C5.88870119,5.43454656 5.44276967,5.88047809 4.89268527,5.88047809 L2.19149005,5.88047809 C1.64140563,5.88047809 1.19547411,5.43454657 1.19547411,4.88446216 L1.19547411,2.19123506 C1.19547411,1.64115065 1.64140563,1.19521912 2.19149005,1.19521912 L4.89268527,1.19521912 C5.44276967,1.19521912 5.88870119,1.64115066 5.88870119,2.19123506 L5.88870119,4.88446216 Z M15.2034422,11.3227092 C15.5334929,11.3227092 15.8010518,11.0551503 15.8010518,10.7250996 L15.8010518,8.82868527 C15.7922955,7.62472767 14.8138062,6.65338645 13.6098167,6.65338645 L8.82894023,6.65338645 C7.6249508,6.65338645 6.64646146,7.62472767 6.63764714,8.82868527 L6.63764714,13.6095617 C6.63345846,14.1934697 6.86244394,14.7549217 7.27384142,15.1693111 C7.68523889,15.5837006 8.24501686,15.8167338 8.82894023,15.8167338 L13.6098167,15.8167338 C14.6731216,15.8175894 15.5835845,15.0549507 15.7691793,14.0079681 C15.8263881,13.6823182 15.6087735,13.3719498 15.2831235,13.314741 C14.9574735,13.2575323 14.6471052,13.4751468 14.5898964,13.8007968 C14.4921336,14.2643804 14.0835953,14.5965253 13.6098167,14.5976096 L8.82894023,14.5976096 C8.2819526,14.5976271 7.8373002,14.1565319 7.8329243,13.6095618 L7.8329243,8.82868527 C7.84162702,8.28483434 8.28501969,7.84853595 8.82894023,7.84860558 L13.6098167,7.84860558 C14.1537373,7.84853595 14.59713,8.28483434 14.6058327,8.82868527 L14.6058327,10.7091633 C14.6015314,10.8704021 14.6625897,11.0265329 14.7751328,11.1420771 C14.8876759,11.2576214 15.0421462,11.3227665 15.2034422,11.3227092 L15.2034422,11.3227092 Z M4.60583267,12.5338645 C4.42112062,12.2818838 4.07348779,12.214709 3.80819578,12.3797332 C3.54290377,12.5447573 3.44949908,12.8862783 3.59388048,13.1633466 L4.00025498,13.8167331 L2.19149005,13.8167331 C2.13724808,13.8167765 2.08533396,13.7946988 2.04773837,13.7555994 C2.01014278,13.7165 1.99011716,13.6637603 1.99228686,13.6095617 L1.99228686,8.42231075 C1.99228686,8.0922601 1.72472794,7.82470119 1.3946773,7.82470119 C1.06462665,7.82470119 0.797067734,8.0922601 0.797067734,8.42231075 L0.797067734,13.6095618 C0.797067734,14.3796799 1.42137187,15.0040007 2.19149005,15.0040007 L5.07595219,15.0040007 C5.29441426,15.0056107 5.49635377,14.8878985 5.60259218,14.6970014 C5.7088306,14.5061042 5.70243473,14.2724489 5.58591234,14.0876494 L4.60583267,12.5338645 Z M8.82894023,3.37848606 C8.93032088,3.56979251 9.12724432,3.69130336 9.34369991,3.69611654 C9.56015551,3.70092973 9.76228555,3.58829238 9.8720697,3.40168147 C9.98185385,3.21507056 9.98211982,2.98367554 9.87276494,2.79681275 L9.4265498,2 L13.5779442,2 C13.6923618,2 13.7851155,2.09275376 13.7851155,2.20717131 L13.7851155,5.13147411 C13.7851155,5.46152476 14.0526744,5.72908367 14.3827251,5.72908367 C14.7127757,5.72908367 14.9803347,5.46152476 14.9803347,5.13147411 L14.9803347,2.20717131 C14.9803347,1.83105525 14.829361,1.47068074 14.5611689,1.20698343 C14.2929767,0.94328613 13.9301013,0.798369804 13.5540398,0.804780875 L8.38272509,0.804780875 C8.18063432,0.809687053 7.99472243,0.916426017 7.88859659,1.0884785 C7.78247076,1.26053099 7.77051834,1.47457206 7.85682869,1.65737052 L8.82894023,3.37848606 Z" id="形状" fill="#7F848B"></path>
        </g>
    </g>
</svg>