<?xml version="1.0" encoding="UTF-8"?>
<svg width="16px" height="16px" viewBox="0 0 16 16" version="1.1" xmlns="http://www.w3.org/2000/svg" xmlns:xlink="http://www.w3.org/1999/xlink">
    <title>系统参数设置</title>
    <g id="页面-1" stroke="none" stroke-width="1" fill="none" fill-rule="evenodd">
        <g id="系统参数设置" fill-rule="nonzero">
            <rect id="矩形" fill="#000000" opacity="0" x="0" y="0" width="16" height="16"></rect>
            <path d="M7.97513712,15 C7.66371649,14.9998134 7.35261446,14.9812152 7.04366103,14.9443149 C6.59564709,14.888739 6.23375558,14.5722594 6.14119869,14.1550979 C6.00373218,13.5444653 5.60149137,13.0160049 5.03203113,12.6978835 C4.46257089,12.379762 3.77790916,12.3010387 3.14409594,12.480806 C2.71655636,12.6038252 2.25326513,12.4587645 1.98860677,12.119012 C1.63216966,11.6577902 1.33683453,11.1572089 1.10916987,10.6284014 C0.959104977,10.2710451 1.04153565,9.86408155 1.3207003,9.58406708 C1.73124278,9.16983757 1.95919459,8.62373328 1.95824355,8.05670432 C1.95946962,7.4780835 1.72185962,6.9217326 1.29573498,6.5054765 C1.01274556,6.23007062 0.924005065,5.82521805 1.06801084,5.46655162 C1.31761058,4.86130365 1.65523281,4.29173258 2.07117786,3.77420185 C2.33129382,3.45156294 2.77300088,3.31012253 3.18761656,3.41670351 C3.80281983,3.57880477 4.46136029,3.49967504 5.01382143,3.19726809 C5.56628257,2.89486114 5.96582629,2.39481528 6.12179997,1.8105861 C6.22115743,1.41565639 6.56686236,1.11844649 6.99297133,1.06162149 C7.75114723,0.965933828 8.52047315,0.981766981 9.2735021,1.10855607 C9.67360041,1.18010665 9.99379937,1.4633264 10.0951645,1.83532619 C10.4154854,2.98304807 11.6321269,3.69359083 12.8642058,3.45250107 C13.263191,3.37262852 13.6751259,3.51784255 13.9207615,3.82495485 C14.3504978,4.37063384 14.6935051,4.9725412 14.9389414,5.61165108 C15.0664437,5.94836102 14.9911612,6.32376918 14.7420865,6.59329986 C13.9790656,7.42645164 13.971591,8.65921111 14.724459,9.50053943 C14.968446,9.77327655 15.036591,10.149294 14.9025055,10.4829837 C14.675774,11.0460614 14.3728378,11.5791403 14.001224,12.0689749 C13.7542691,12.3897741 13.3261357,12.5378423 12.9178475,12.4436561 C12.3032472,12.3095736 11.6573274,12.4123727 11.1234045,12.7292444 C10.5894817,13.0461161 10.2117103,13.5508557 10.0739103,14.1314715 C9.98241166,14.5273769 9.64545738,14.8313725 9.22205332,14.9000055 C8.81013586,14.9663529 8.39301779,14.9998031 7.97513712,15 Z M3.82625626,11.5192834 C5.37518858,11.5254692 6.71119351,12.5467146 7.03843181,13.9746782 C7.04947742,14.0317654 7.09790672,14.0758426 7.15878824,14.0842187 C7.79364211,14.1596345 8.43680541,14.1465544 9.06762261,14.0453983 C9.12370396,14.0358362 9.16779375,13.9947571 9.17861704,13.9419831 C9.36937811,13.1360656 9.89342965,12.4353532 10.6343752,11.9954802 C11.3753208,11.5556072 12.2718151,11.412992 13.1247391,11.5993109 C13.171747,11.6126449 13.2226849,11.5989803 13.2552166,11.5643088 C13.5807121,11.1352552 13.8460574,10.6683272 14.0446603,10.1751247 C14.0599876,10.1363066 14.0521031,10.0927194 14.0239964,10.0608906 C12.9790292,8.89309625 12.9894723,7.18200044 14.0486244,6.02563004 C14.0798622,5.99395678 14.0904793,5.94881837 14.076373,5.90765717 C13.8613301,5.34782985 13.5608915,4.8205673 13.1845377,4.34250808 C13.1521743,4.30550011 13.1000119,4.2895245 13.0507709,4.30153976 C11.3408731,4.63625591 9.6523419,3.65008713 9.20796816,2.05719154 C9.19803711,2.01086714 9.16087264,1.97399053 9.11232402,1.96228822 C8.4525847,1.8512752 7.77858605,1.8374013 7.11433986,1.9211608 C7.06167793,1.93287428 7.02124034,1.97269695 7.01110492,2.02282588 C6.79504505,2.833576 6.24081492,3.52758289 5.47426754,3.94725343 C4.70772015,4.36692397 3.79390369,4.47664548 2.94032501,4.25150272 C2.88849905,4.23961293 2.83414883,4.25801473 2.80217236,4.2982782 C2.43793049,4.75171518 2.14234504,5.25074379 1.92391625,5.78101334 C1.90886814,5.82459768 1.92162002,5.87245972 1.95672539,5.90415696 C2.54805828,6.48188514 2.87777448,7.25400617 2.87605619,8.05702252 C2.8772877,8.84374041 2.5609498,9.60139804 1.99130573,10.1760793 C1.95583449,10.2088191 1.94346481,10.2578695 1.95950869,10.3021662 C2.15879386,10.765467 2.41739444,11.2040463 2.72955366,11.608141 C2.76458022,11.6511879 2.82482816,11.6683473 2.8792612,11.6507798 C3.1863866,11.5634062 3.50546412,11.5191002 3.82625626,11.5192834 L3.82625626,11.5192834 Z" id="形状" fill="#7F848B"></path>
            <path d="M8.22710462,10.4472654 C7.32743063,10.4486546 6.51557022,9.90777515 6.17031505,9.07698391 C5.82505988,8.24619267 6.01445161,7.28921899 6.65012529,6.65256038 C7.28579896,6.01590176 8.24247828,5.82502864 9.07380305,6.16899713 C9.90512783,6.51296563 10.4472646,7.32398766 10.4472646,8.22366272 C10.4470458,9.45028979 9.45372988,10.4451448 8.22710462,10.4472654 L8.22710462,10.4472654 Z M8.22710462,6.86766111 C7.67842568,6.86682114 7.18330662,7.19669396 6.97276036,7.70336897 C6.76221409,8.21004397 6.87773523,8.79366528 7.26542385,9.18192655 C7.65311247,9.57018783 8.23656263,9.68657027 8.74354785,9.4767721 C9.25053307,9.26697392 9.58113634,8.7723423 9.58110462,8.22366272 C9.58084118,7.47565432 8.97511181,6.86903023 8.22710462,6.86766111 L8.22710462,6.86766111 Z" id="形状" fill="#7F848B"></path>
        </g>
    </g>
</svg>